<svg width="53" height="53" viewBox="0 0 53 53" fill="none" xmlns="http://www.w3.org/2000/svg">
<g clip-path="url(#clip0_148_271)">
<rect width="53" height="53" fill="#F7D40A"/>
<path d="M23.25 17.45H9.85V27.4H21.55V32.55H9.85V46H3.5V12.3H23.25V17.45ZM43.4512 31.25V30.5C43.3845 28.8667 42.9345 27.5667 42.1012 26.6C41.3012 25.6 40.1178 25.1 38.5512 25.1C37.1178 25.1 35.8678 25.6333 34.8012 26.7C33.7678 27.7333 33.1012 29.25 32.8012 31.25H43.4512ZM47.5512 39.4V44.6C45.7845 45.7 43.2345 46.25 39.9012 46.25C35.8678 46.25 32.6845 45.05 30.3512 42.65C28.0178 40.25 26.8512 37.15 26.8512 33.35C26.8512 29.3167 27.9512 26.15 30.1512 23.85C32.3512 21.55 35.1012 20.4 38.4012 20.4C41.7012 20.4 44.3178 21.4 46.2512 23.4C48.1845 25.4 49.1512 28.3167 49.1512 32.15C49.1512 33.0833 49.0345 34.2833 48.8012 35.75H32.9012C33.3345 37.5833 34.2345 38.9833 35.6012 39.95C37.0012 40.9167 38.7345 41.4 40.8012 41.4C43.4678 41.4 45.7178 40.7333 47.5512 39.4Z" fill="black"/>
<path d="M63.0684 20.65V25.15C64.235 22.0167 66.3684 20.45 69.4684 20.45C70.1684 20.45 70.735 20.5 71.1684 20.6V26.4C70.4017 26.0667 69.5517 25.9 68.6184 25.9C66.985 25.9 65.6517 26.5667 64.6184 27.9C63.585 29.2333 63.0684 30.9 63.0684 32.9V46H57.0184L57.0684 20.65H63.0684ZM80.6953 20.65V25.15C81.862 22.0167 83.9953 20.45 87.0953 20.45C87.7953 20.45 88.362 20.5 88.7953 20.6V26.4C88.0286 26.0667 87.1786 25.9 86.2453 25.9C84.612 25.9 83.2786 26.5667 82.2453 27.9C81.212 29.2333 80.6953 30.9 80.6953 32.9V46H74.6453L74.6953 20.65H80.6953ZM103.172 46.4C99.3389 46.4 96.3389 45.2 94.1723 42.8C92.0389 40.4 90.9723 37.3333 90.9723 33.6C90.9723 29.7333 92.0889 26.55 94.3223 24.05C96.5556 21.5167 99.5056 20.25 103.172 20.25C107.072 20.25 110.089 21.4833 112.222 23.95C114.356 26.3833 115.422 29.4833 115.422 33.25C115.422 37.0833 114.339 40.2333 112.172 42.7C110.039 45.1667 107.039 46.4 103.172 46.4ZM103.172 25.15C101.272 25.15 99.8056 25.9333 98.7723 27.5C97.7723 29.0667 97.2723 31.0333 97.2723 33.4C97.2723 35.7333 97.7889 37.6833 98.8223 39.25C99.8556 40.8167 101.322 41.6 103.222 41.6C105.189 41.6 106.672 40.8333 107.672 39.3C108.672 37.7667 109.172 35.8167 109.172 33.45C109.172 31.0167 108.689 29.0333 107.722 27.5C106.756 25.9333 105.239 25.15 103.172 25.15ZM135.744 21.45V26.75C134.077 25.75 131.994 25.25 129.494 25.25C128.46 25.25 127.644 25.4833 127.044 25.95C126.477 26.3833 126.194 26.95 126.194 27.65C126.194 27.9167 126.227 28.1667 126.294 28.4C126.394 28.6333 126.544 28.8667 126.744 29.1C126.977 29.3 127.194 29.4833 127.394 29.65C127.594 29.8167 127.877 30 128.244 30.2C128.61 30.3667 128.927 30.5167 129.194 30.65C129.46 30.7833 129.827 30.95 130.294 31.15C130.76 31.35 131.127 31.5167 131.394 31.65C133.16 32.5167 134.56 33.4833 135.594 34.55C136.627 35.6167 137.144 37 137.144 38.7C137.144 41.0667 136.294 42.9167 134.594 44.25C132.894 45.5833 130.627 46.25 127.794 46.25C124.66 46.25 122.127 45.7333 120.194 44.7V39.2C122.427 40.7 124.844 41.45 127.444 41.45C128.544 41.45 129.394 41.25 129.994 40.85C130.627 40.4167 130.944 39.8333 130.944 39.1C130.944 38.6667 130.844 38.2833 130.644 37.95C130.444 37.5833 130.06 37.2333 129.494 36.9C128.927 36.5667 128.477 36.3333 128.144 36.2C127.844 36.0333 127.227 35.75 126.294 35.35C126.194 35.3167 126.11 35.2833 126.044 35.25C126.01 35.2167 125.944 35.1833 125.844 35.15C125.744 35.1167 125.66 35.0833 125.594 35.05C121.894 33.3833 120.044 30.9833 120.044 27.85C120.044 25.5167 120.927 23.6833 122.694 22.35C124.46 21.0167 126.677 20.35 129.344 20.35C131.91 20.35 134.044 20.7167 135.744 21.45Z" fill="#F7D40A"/>
</g>
<defs>
<clipPath id="clip0_148_271">
<rect width="53" height="53" fill="white"/>
</clipPath>
</defs>
</svg>
